#Comment line ignore any data following # character 
#Hierarchical Translation and Rotation (.htr) file 
[Header]	
#Header keywords are followed by a single value 
FileType HTR		#Single word string
DataType HTRS		#Translation followed by rotation and scale data
FileVersion 1		#integer
NumSegments 84		#integer
NumFrames 2		#integer
DataFrameRate 30		#integer, data frame rate in this file
EulerRotationOrder ZYX
CalibrationUnits mm
RotationUnits Degrees
GlobalAxisofGravity Y
BoneLengthAxis Y
ScaleFactor 1.00
[SegmentNames&Hierarchy]
#CHILD	PARENT
MASTER GLOBAL
root MASTER
chest root
L_mid_tent01 root
R_mid_tent01 root
spine01 root
Bip01_Neck chest
L_humerus chest
R_humerus chest
weapon_bone chest
Bip01_Head Bip01_Neck
eye_left_bone Bip01_Head
eye_right_bone Bip01_Head
L_forearm L_humerus
L_front_hand L_forearm
L_weapon_bone L_forearm
L_front_hand01_01 L_front_hand
L_front_hand02_01 L_front_hand
L_front_hand03_01 L_front_hand
L_front_hand01_02 L_front_hand01_01
L_front_hand02_02 L_front_hand02_01
L_front_hand03_02 L_front_hand03_01
R_forearm R_humerus
R_front_hand R_forearm
R_weapon_bone R_forearm
R_front_hand01_01 R_front_hand
R_front_hand02_01 R_front_hand
R_front_hand03_01 R_front_hand
R_front_hand01_02 R_front_hand01_01
R_front_hand02_02 R_front_hand02_01
R_front_hand03_02 R_front_hand03_01
null_rope01_connect L_mid_tent01
Rope1_Seg01 null_rope01_connect
Rope1_Seg02 Rope1_Seg01
Rope1_Seg03 Rope1_Seg02
Rope1_Seg04 Rope1_Seg03
Rope1_Seg05 Rope1_Seg04
Rope1_Seg06 Rope1_Seg05
Rope1_Seg07 Rope1_Seg06
Rope1_Seg09 Rope1_Seg07
L_mid_hand01 Rope1_Seg09
L_mid_hand02 Rope1_Seg09
L_mid_hand03 Rope1_Seg09
null_rope02_connect R_mid_tent01
Rope2_Seg01 null_rope02_connect
Rope2_Seg02 Rope2_Seg01
Rope2_Seg03 Rope2_Seg02
Rope2_Seg04 Rope2_Seg03
Rope2_Seg05 Rope2_Seg04
Rope2_Seg06 Rope2_Seg05
Rope2_Seg07 Rope2_Seg06
Rope2_Seg09 Rope2_Seg07
R_mid_hand01 Rope2_Seg09
R_mid_hand02 Rope2_Seg09
R_mid_hand03 Rope2_Seg09
spine02 spine01
spine03 spine02
pelvis spine03
null_rope03_connect pelvis
null_rope04_connect pelvis
Rope3_Seg01 null_rope03_connect
Rope3_Seg02 Rope3_Seg01
Rope3_Seg03 Rope3_Seg02
Rope3_Seg04 Rope3_Seg03
Rope3_Seg05 Rope3_Seg04
Rope3_Seg06 Rope3_Seg05
Rope3_Seg07 Rope3_Seg06
Rope3_Seg08 Rope3_Seg07
Rope3_Seg09 Rope3_Seg08
R_rear_hand01 Rope3_Seg09
R_rear_hand02 Rope3_Seg09
R_rear_hand03 Rope3_Seg09
Rope4_Seg01 null_rope04_connect
Rope4_Seg02 Rope4_Seg01
Rope4_Seg03 Rope4_Seg02
Rope4_Seg04 Rope4_Seg03
Rope4_Seg05 Rope4_Seg04
Rope4_Seg06 Rope4_Seg05
Rope4_Seg07 Rope4_Seg06
Rope4_Seg08 Rope4_Seg07
Rope4_Seg09 Rope4_Seg08
L_rear_hand01 Rope4_Seg09
L_rear_hand02 Rope4_Seg09
L_rear_hand03 Rope4_Seg09
[BasePosition]
#SegmentName Tx, Ty, Tz, Rx, Ry, Rz, BoneLength
MASTER 0.000000 0.000000 0.000000 -90.000000 0.000000 0.000000 10.000000 
root 0.000000 0.000000 0.000000 0.000000 0.000000 0.000000 10.000000 
chest 0.000000 0.000000 0.000000 0.000000 0.000000 0.000000 10.000000 
L_mid_tent01 0.000000 0.000000 0.000000 0.000000 0.000000 0.000000 10.000000 
R_mid_tent01 0.000000 0.000000 0.000000 0.000000 0.000000 0.000000 10.000000 
spine01 0.000000 0.000000 0.000000 0.000000 0.000000 0.000000 10.000000 
Bip01_Neck 0.000000 0.000000 0.000000 0.000000 0.000000 0.000000 10.000000 
L_humerus 0.000000 0.000000 0.000000 0.000000 0.000000 0.000000 10.000000 
R_humerus 0.000000 0.000000 0.000000 0.000000 0.000000 0.000000 10.000000 
weapon_bone 0.000000 0.000000 0.000000 0.000000 0.000000 0.000000 10.000000 
Bip01_Head 0.000000 0.000000 0.000000 0.000000 0.000000 0.000000 10.000000 
eye_left_bone 0.000000 0.000000 0.000000 0.000000 0.000000 0.000000 10.000000 
eye_right_bone 0.000000 0.000000 0.000000 0.000000 0.000000 0.000000 10.000000 
L_forearm 0.000000 0.000000 0.000000 0.000000 0.000000 0.000000 10.000000 
L_front_hand 0.000000 0.000000 0.000000 0.000000 0.000000 0.000000 10.000000 
L_weapon_bone 0.000000 0.000000 0.000000 0.000000 0.000000 0.000000 10.000000 
L_front_hand01_01 0.000000 0.000000 0.000000 0.000000 0.000000 0.000000 10.000000 
L_front_hand02_01 0.000000 0.000000 0.000000 0.000000 0.000000 0.000000 10.000000 
L_front_hand03_01 0.000000 0.000000 0.000000 0.000000 0.000000 0.000000 10.000000 
L_front_hand01_02 0.000000 0.000000 0.000000 0.000000 0.000000 0.000000 10.000000 
L_front_hand02_02 0.000000 0.000000 0.000000 0.000000 0.000000 0.000000 10.000000 
L_front_hand03_02 0.000000 0.000000 0.000000 0.000000 0.000000 0.000000 10.000000 
R_forearm 0.000000 0.000000 0.000000 0.000000 0.000000 0.000000 10.000000 
R_front_hand 0.000000 0.000000 0.000000 0.000000 0.000000 0.000000 10.000000 
R_weapon_bone 0.000000 0.000000 0.000000 0.000000 0.000000 0.000000 10.000000 
R_front_hand01_01 0.000000 0.000000 0.000000 0.000000 0.000000 0.000000 10.000000 
R_front_hand02_01 0.000000 0.000000 0.000000 0.000000 0.000000 0.000000 10.000000 
R_front_hand03_01 0.000000 0.000000 0.000000 0.000000 0.000000 0.000000 10.000000 
R_front_hand01_02 0.000000 0.000000 0.000000 0.000000 0.000000 0.000000 10.000000 
R_front_hand02_02 0.000000 0.000000 0.000000 0.000000 0.000000 0.000000 10.000000 
R_front_hand03_02 0.000000 0.000000 0.000000 0.000000 0.000000 0.000000 10.000000 
null_rope01_connect 0.000000 0.000000 0.000000 0.000000 0.000000 0.000000 10.000000 
Rope1_Seg01 0.000000 0.000000 0.000000 0.000000 0.000000 0.000000 10.000000 
Rope1_Seg02 0.000000 0.000000 0.000000 0.000000 0.000000 0.000000 10.000000 
Rope1_Seg03 0.000000 0.000000 0.000000 0.000000 0.000000 0.000000 10.000000 
Rope1_Seg04 0.000000 0.000000 0.000000 0.000000 0.000000 0.000000 10.000000 
Rope1_Seg05 0.000000 0.000000 0.000000 0.000000 0.000000 0.000000 10.000000 
Rope1_Seg06 0.000000 0.000000 0.000000 0.000000 0.000000 0.000000 10.000000 
Rope1_Seg07 0.000000 0.000000 0.000000 0.000000 0.000000 0.000000 10.000000 
Rope1_Seg09 0.000000 0.000000 0.000000 0.000000 0.000000 0.000000 10.000000 
L_mid_hand01 0.000000 0.000000 0.000000 0.000000 0.000000 0.000000 10.000000 
L_mid_hand02 0.000000 0.000000 0.000000 0.000000 0.000000 0.000000 10.000000 
L_mid_hand03 0.000000 0.000000 0.000000 0.000000 0.000000 0.000000 10.000000 
null_rope02_connect 0.000000 0.000000 0.000000 0.000000 0.000000 0.000000 10.000000 
Rope2_Seg01 0.000000 0.000000 0.000000 0.000000 0.000000 0.000000 10.000000 
Rope2_Seg02 0.000000 0.000000 0.000000 0.000000 0.000000 0.000000 10.000000 
Rope2_Seg03 0.000000 0.000000 0.000000 0.000000 0.000000 0.000000 10.000000 
Rope2_Seg04 0.000000 0.000000 0.000000 0.000000 0.000000 0.000000 10.000000 
Rope2_Seg05 0.000000 0.000000 0.000000 0.000000 0.000000 0.000000 10.000000 
Rope2_Seg06 0.000000 0.000000 0.000000 0.000000 0.000000 0.000000 10.000000 
Rope2_Seg07 0.000000 0.000000 0.000000 0.000000 0.000000 0.000000 10.000000 
Rope2_Seg09 0.000000 0.000000 0.000000 0.000000 0.000000 0.000000 10.000000 
R_mid_hand01 0.000000 0.000000 0.000000 0.000000 0.000000 0.000000 10.000000 
R_mid_hand02 0.000000 0.000000 0.000000 0.000000 0.000000 0.000000 10.000000 
R_mid_hand03 0.000000 0.000000 0.000000 0.000000 0.000000 0.000000 10.000000 
spine02 0.000000 0.000000 0.000000 0.000000 0.000000 0.000000 10.000000 
spine03 0.000000 0.000000 0.000000 0.000000 0.000000 0.000000 10.000000 
pelvis 0.000000 0.000000 0.000000 0.000000 0.000000 0.000000 10.000000 
null_rope03_connect 0.000000 0.000000 0.000000 0.000000 0.000000 0.000000 10.000000 
null_rope04_connect 0.000000 0.000000 0.000000 0.000000 0.000000 0.000000 10.000000 
Rope3_Seg01 0.000000 0.000000 0.000000 0.000000 0.000000 0.000000 10.000000 
Rope3_Seg02 0.000000 0.000000 0.000000 0.000000 0.000000 0.000000 10.000000 
Rope3_Seg03 0.000000 0.000000 0.000000 0.000000 0.000000 0.000000 10.000000 
Rope3_Seg04 0.000000 0.000000 0.000000 0.000000 0.000000 0.000000 10.000000 
Rope3_Seg05 0.000000 0.000000 0.000000 0.000000 0.000000 0.000000 10.000000 
Rope3_Seg06 0.000000 0.000000 0.000000 0.000000 0.000000 0.000000 10.000000 
Rope3_Seg07 0.000000 0.000000 0.000000 0.000000 0.000000 0.000000 10.000000 
Rope3_Seg08 0.000000 0.000000 0.000000 0.000000 0.000000 0.000000 10.000000 
Rope3_Seg09 0.000000 0.000000 0.000000 0.000000 0.000000 0.000000 10.000000 
R_rear_hand01 0.000000 0.000000 0.000000 0.000000 0.000000 0.000000 10.000000 
R_rear_hand02 0.000000 0.000000 0.000000 0.000000 0.000000 0.000000 10.000000 
R_rear_hand03 0.000000 0.000000 0.000000 0.000000 0.000000 0.000000 10.000000 
Rope4_Seg01 0.000000 0.000000 0.000000 0.000000 0.000000 0.000000 10.000000 
Rope4_Seg02 0.000000 0.000000 0.000000 0.000000 0.000000 0.000000 10.000000 
Rope4_Seg03 0.000000 0.000000 0.000000 0.000000 0.000000 0.000000 10.000000 
Rope4_Seg04 0.000000 0.000000 0.000000 0.000000 0.000000 0.000000 10.000000 
Rope4_Seg05 0.000000 0.000000 0.000000 0.000000 0.000000 0.000000 10.000000 
Rope4_Seg06 0.000000 0.000000 0.000000 0.000000 0.000000 0.000000 10.000000 
Rope4_Seg07 0.000000 0.000000 0.000000 0.000000 0.000000 0.000000 10.000000 
Rope4_Seg08 0.000000 0.000000 0.000000 0.000000 0.000000 0.000000 10.000000 
Rope4_Seg09 0.000000 0.000000 0.000000 0.000000 0.000000 0.000000 10.000000 
L_rear_hand01 0.000000 0.000000 0.000000 0.000000 0.000000 0.000000 10.000000 
L_rear_hand02 0.000000 0.000000 0.000000 0.000000 0.000000 0.000000 10.000000 
L_rear_hand03 0.000000 0.000000 0.000000 0.000000 0.000000 0.000000 10.000000 
#Beginning of Data. Separated by tabs
#Fr	Tx	Ty	Tz	Rx	Ry	Rz	SF
[MASTER]
12 -2615.241211 2318.374512 2543.087891 0.001660 0.001660 0.001660 4322.226563
13 -2652.076660 2337.674316 2496.337891 0.001660 0.001660 0.001660 4327.809570
[root]
12 36.636353 -70.184021 320.725708 -165.272995 -11.770353 -74.358788 330.352844
13 33.815617 -88.172569 360.891785 -167.703247 -10.122798 -79.145042 373.042603
[chest]
12 -84.512650 -34.090519 0.000000 -44.272884 -19.329929 -156.411758 91.129311
13 -84.512650 -34.090519 0.000000 -48.043694 -19.836216 -153.727982 91.129311
[L_mid_tent01]
12 27.298962 22.179258 -249.918686 -1.858677 22.697777 67.350800 252.381668
13 27.298950 22.179258 -249.918686 -1.822787 23.037270 67.364182 252.381668
[R_mid_tent01]
12 23.228794 24.509907 226.238495 172.078735 -20.043310 58.158344 228.744751
13 23.228794 24.509907 226.238495 171.080429 -15.905301 58.684372 228.744751
[spine01]
12 -0.361383 -0.195265 0.000000 0.001956 0.001298 22.856920 0.410763
13 -0.361383 -0.195265 0.000000 0.001956 0.001298 22.880466 0.410763
[Bip01_Neck]
12 165.484543 71.581718 0.000119 176.643677 -1.657967 43.431911 180.302734
13 165.484543 71.581718 0.000119 176.643677 -1.657967 43.431915 180.302734
[L_humerus]
12 -13.983130 -135.272980 -120.471481 64.432198 83.006577 154.804230 181.680161
13 -13.983130 -135.272980 -120.471481 108.843880 82.467148 -160.494781 181.680161
[R_humerus]
12 -13.983309 -135.273102 125.287651 -173.452652 -57.655758 -91.309006 184.909012
13 -13.983309 -135.273102 125.287651 -174.828415 -45.404907 -89.598747 184.909012
[weapon_bone]
12 235.964890 -300.705902 0.000000 0.000000 -89.951546 -128.212341 382.234833
13 235.964890 -300.705902 0.000000 0.000000 -89.951546 -128.212341 382.234833
[Bip01_Head]
12 213.500565 185.559387 13.793334 17.977615 1.536298 -43.872437 283.204956
13 213.436966 185.736679 11.504519 18.103081 3.154473 -43.861118 283.170990
[eye_left_bone]
12 -24.626970 125.451866 -64.772606 0.000000 -90.000000 -99.840431 143.318359
13 -24.626970 125.451866 -64.772606 0.000000 -90.000000 -99.840431 143.318359
[eye_right_bone]
12 -24.626970 125.451866 64.327362 0.000000 -89.965736 80.156380 143.117676
13 -24.626970 125.451866 64.327362 0.000000 -89.972023 80.156387 143.117676
[L_forearm]
12 322.776093 0.000000 -0.000119 0.000430 -0.002307 -111.119781 322.776093
13 322.776093 0.000000 -0.000119 0.000431 -0.002307 -111.161766 322.776093
[L_front_hand]
12 241.149185 -0.042021 -3.300071 -178.667953 -1.835447 -27.422350 241.171753
13 241.149185 -0.042021 -3.300071 -178.667953 -1.835447 -27.422342 241.171753
[L_weapon_bone]
12 156.183838 0.000000 0.000000 0.000014 0.000007 0.000001 156.183838
13 156.183838 0.000000 0.000000 0.000014 0.000007 0.000001 156.183838
[L_front_hand01_01]
12 86.095154 20.947098 -0.655860 -0.274251 -0.532978 65.190620 88.609184
13 86.095154 20.947098 -0.655860 -0.281026 -0.528937 65.755089 88.609184
[L_front_hand02_01]
12 86.935165 -11.437475 24.513514 140.993607 -54.388721 -45.452248 91.046425
13 86.935165 -11.437475 24.513514 141.611877 -54.742973 -46.215725 91.046425
[L_front_hand03_01]
12 86.637497 -14.123976 -20.424902 -141.389969 52.619431 -47.524090 90.126129
13 86.637497 -14.123976 -20.424902 -141.973572 52.970398 -48.259937 90.126129
[L_front_hand01_02]
12 71.020905 -0.000179 0.000030 0.000315 -0.002326 -105.400543 71.020905
13 71.020905 -0.000179 0.000030 0.000315 -0.002326 -105.422302 71.020905
[L_front_hand02_02]
12 71.020927 -0.000119 0.000060 0.000315 -0.002326 -105.400543 71.020927
13 71.020927 -0.000119 0.000060 0.000315 -0.002326 -105.422302 71.020927
[L_front_hand03_02]
12 71.020905 -0.000060 0.000060 0.000315 -0.002326 -105.400543 71.020905
13 71.020905 -0.000060 0.000060 0.000315 -0.002326 -105.422302 71.020905
[R_forearm]
12 322.776428 -0.000060 0.000030 0.201109 0.068162 -109.770760 322.776428
13 322.776428 -0.000060 0.000030 0.201073 0.068269 -109.831215 322.776428
[R_front_hand]
12 238.847015 -0.006795 2.210259 -2.635298 -10.645461 -26.312506 238.857239
13 238.847015 -0.006795 2.210259 -2.635298 -10.645461 -26.312506 238.857239
[R_weapon_bone]
12 155.664093 0.002503 -0.000030 0.003487 0.001180 -90.988930 155.664078
13 155.664093 0.002503 -0.000030 0.003487 0.001180 -90.988930 155.664078
[R_front_hand01_01]
12 87.624611 14.231146 22.918642 -138.456909 -52.798630 42.405624 91.683487
13 87.624611 14.231146 22.918642 -139.165207 -53.267754 43.295242 91.683487
[R_front_hand02_01]
12 89.356956 14.367283 -19.491137 139.300415 51.240429 45.105949 92.579636
13 89.356956 14.367283 -19.491137 139.980438 51.699215 45.970734 92.579636
[R_front_hand03_01]
12 87.286232 -22.307278 -0.143439 0.064051 -0.451784 -62.968155 90.091743
13 87.286232 -22.307278 -0.143439 0.071045 -0.448771 -63.677063 90.091743
[R_front_hand01_02]
12 71.020905 0.000060 0.000119 0.002323 -0.000334 106.381714 71.020905
13 71.020905 0.000060 0.000119 0.002323 -0.000334 106.381714 71.020905
[R_front_hand02_02]
12 71.020844 -0.000030 -0.000119 0.002323 -0.000334 106.381714 71.020836
13 71.020844 -0.000030 -0.000119 0.002323 -0.000334 106.381714 71.020836
[R_front_hand03_02]
12 71.020905 0.000000 0.000030 0.002323 -0.000334 106.381714 71.020905
13 71.020905 0.000000 0.000030 0.002323 -0.000334 106.381714 71.020905
[null_rope01_connect]
12 328.732483 0.000000 -0.000238 -160.223572 1.827990 -143.385696 328.732483
13 328.732483 0.000000 -0.000238 -161.355087 6.371250 -147.469803 328.732483
[Rope1_Seg01]
12 0.000000 0.000000 0.000000 68.868576 -58.204590 37.275360 0.000000
13 0.000000 0.000000 0.000000 85.719261 -59.305550 18.000568 0.000000
[Rope1_Seg02]
12 139.999863 -0.000179 0.000000 -0.598878 6.289098 -1.373590 139.999863
13 139.999863 -0.000179 0.000000 -0.239762 7.002062 -1.192304 139.999863
[Rope1_Seg03]
12 139.999924 0.000060 -0.000060 -2.417152 12.375594 -2.619114 139.999924
13 139.999924 0.000060 -0.000060 -1.840884 13.447879 -2.277449 139.999924
[Rope1_Seg04]
12 139.999924 -0.000060 -0.000119 -17.906691 31.773863 -14.347591 139.999924
13 139.999924 -0.000060 -0.000119 -12.647600 29.185925 -11.678471 139.999924
[Rope1_Seg05]
12 139.999832 0.000119 -0.000060 -36.192394 31.356867 18.090431 139.999832
13 139.999832 0.000119 -0.000060 -32.464207 32.280136 7.581748 139.999832
[Rope1_Seg06]
12 139.999954 0.000119 -0.000060 -8.100824 -7.403984 25.114702 139.999954
13 139.999954 0.000119 -0.000060 -16.388491 4.366457 41.111591 139.999954
[Rope1_Seg07]
12 139.999985 0.000060 0.000000 -1.838812 -1.325141 10.127196 139.999985
13 139.999985 0.000060 0.000000 -2.008714 -0.942137 17.387873 139.999985
[Rope1_Seg09]
12 121.602913 0.000119 -0.000089 -89.793175 -1.359789 0.847147 121.602913
13 121.602913 0.000119 -0.000089 -89.793175 -1.359789 0.847147 121.602913
[L_mid_hand01]
12 103.859421 1.038730 8.195221 109.203865 -41.086700 -13.424594 104.187431
13 103.859421 1.038730 8.195221 109.630608 -42.428204 -14.062104 104.187431
[L_mid_hand02]
12 105.572853 -4.139662 -10.864139 -146.975464 31.757511 -38.401608 106.211075
13 105.572853 -4.139662 -10.864139 -147.734787 32.524982 -39.820675 106.211075
[L_mid_hand03]
12 104.641464 17.579376 -3.913581 -14.157615 12.442541 44.406353 106.179977
13 104.641464 17.579376 -3.913581 -13.849796 12.791805 45.822666 106.179977
[null_rope02_connect]
12 328.732849 0.000179 -0.000119 -14.717712 23.392311 122.948540 328.732849
13 328.732849 0.000179 -0.000119 -10.670527 18.801884 131.218399 328.732849
[Rope2_Seg01]
12 0.000047 0.000116 0.000000 71.639656 50.050568 7.795271 0.000125
13 0.000048 0.000113 0.000000 72.635368 38.487171 6.715549 0.000123
[Rope2_Seg02]
12 139.999741 -0.000060 -0.000119 -3.615506 31.148781 -10.674499 139.999756
13 139.999741 -0.000060 -0.000119 -1.387053 27.296364 -6.761735 139.999756
[Rope2_Seg03]
12 140.000107 0.000030 0.000000 -0.781886 17.799461 -9.281597 140.000107
13 140.000107 0.000030 0.000000 -2.916926 23.782387 -9.027855 140.000107
[Rope2_Seg04]
12 139.999802 0.000000 -0.000060 -0.765157 8.249836 -3.272100 139.999802
13 139.999802 0.000000 -0.000060 -0.765534 11.343691 -4.866960 139.999802
[Rope2_Seg05]
12 139.999985 -0.000060 0.000119 -17.024881 15.373139 2.259221 139.999985
13 139.999985 -0.000060 0.000119 -11.885787 12.288150 3.369699 139.999985
[Rope2_Seg06]
12 139.999893 -0.000030 -0.000119 -70.432602 27.719522 18.364290 139.999893
13 139.999893 -0.000030 -0.000119 -43.455257 20.796177 18.241323 139.999893
[Rope2_Seg07]
12 139.999893 0.000060 -0.000060 -20.733355 -4.562366 19.327549 139.999893
13 139.999893 0.000060 -0.000060 -25.185926 2.434560 21.195702 139.999893
[Rope2_Seg09]
12 121.338966 0.000089 -0.000060 33.793236 -1.359788 -0.847141 121.338966
13 121.338966 0.000089 -0.000060 33.793236 -1.359788 -0.847141 121.338966
[R_mid_hand01]
12 104.680779 11.144459 -10.335981 -34.514381 34.853710 42.458721 105.778534
13 104.680779 11.144459 -10.335981 -35.659058 33.675755 40.429829 105.778534
[R_mid_hand02]
12 104.070427 2.443552 8.231699 68.611877 -47.139297 16.550779 104.424065
13 104.070427 2.443552 8.231699 69.379761 -45.224785 15.491559 104.424065
[R_mid_hand03]
12 106.028137 -11.221827 -5.996406 -171.008881 13.064262 -52.295349 106.788818
13 106.028137 -11.221827 -5.996406 -170.548004 12.734514 -50.222630 106.788818
[spine02]
12 129.756927 0.001550 0.000119 0.529752 -4.024967 -15.361951 129.756927
13 129.756927 0.001550 0.000119 0.537560 -4.023919 -15.444610 129.756927
[spine03]
12 78.614059 0.081742 -4.899003 1.995888 3.780540 17.997084 78.766594
13 78.614052 0.081742 -4.899002 1.999596 3.776836 18.047235 78.766586
[pelvis]
12 169.435242 0.051022 0.000000 5.644052 -0.882882 3.271385 169.435257
13 169.435242 0.051022 0.000000 6.056187 -0.850542 1.690194 169.435257
[null_rope03_connect]
12 -1.257226 -2.466202 137.391083 -172.274811 -24.312223 -102.913300 137.418976
13 -1.257226 -2.466202 137.391083 -171.339966 -21.300385 -106.530983 137.418976
[null_rope04_connect]
12 -1.259640 -2.480268 -137.844437 -172.274811 -24.312223 -102.913300 137.872513
13 -1.259640 -2.480268 -137.844437 -171.339966 -21.300385 -106.530983 137.872513
[Rope3_Seg01]
12 0.000000 0.000000 0.000000 30.507990 23.620918 -43.153019 0.000000
13 0.000000 0.000000 0.000000 34.209213 32.872742 -49.160164 0.000000
[Rope3_Seg02]
12 139.999924 -0.000119 0.000060 15.109386 19.117741 -8.981034 139.999924
13 139.999924 -0.000119 0.000060 10.170768 15.646980 -11.231757 139.999924
[Rope3_Seg03]
12 139.999924 -0.000119 0.000119 14.507055 20.742449 -20.832588 139.999924
13 139.999924 -0.000119 0.000119 8.709954 17.307661 -20.836857 139.999924
[Rope3_Seg04]
12 139.999924 0.000119 0.000000 4.912576 6.304291 -17.783888 139.999924
13 139.999924 0.000119 0.000000 2.726747 6.506152 -17.819597 139.999924
[Rope3_Seg05]
12 139.999924 -0.000238 0.000060 2.485246 8.727271 -11.517661 139.999924
13 139.999924 -0.000238 0.000060 0.592605 10.341427 -12.299098 139.999924
[Rope3_Seg06]
12 139.999893 -0.000119 -0.000060 0.950183 19.556202 -19.183327 139.999893
13 139.999893 -0.000119 -0.000060 -2.395802 22.347559 -19.231993 139.999893
[Rope3_Seg07]
12 139.999771 0.000060 -0.000119 -1.205911 16.276207 -18.722898 139.999771
13 139.999771 0.000060 -0.000119 -2.150061 16.709507 -15.351009 139.999771
[Rope3_Seg08]
12 139.999985 -0.000060 0.000000 -0.366778 6.558992 -8.408711 139.999985
13 139.999985 -0.000060 0.000000 -0.412045 6.952390 -6.721165 139.999985
[Rope3_Seg09]
12 90.185997 -0.000179 -0.000060 89.793228 -1.359877 -0.847183 90.185997
13 90.185997 -0.000179 -0.000060 89.793228 -1.359877 -0.847183 90.185997
[R_rear_hand01]
12 103.366196 -6.073594 -10.757982 -166.071487 20.559361 -44.173790 104.101845
13 103.366196 -6.073594 -10.757982 -165.364609 20.073742 -42.141056 104.101845
[R_rear_hand02]
12 100.509819 12.039542 -7.992327 -29.245224 26.638008 41.706211 101.543350
13 100.509819 12.039542 -7.992327 -30.084070 25.665682 39.802124 101.543350
[R_rear_hand03]
12 101.539970 5.215704 5.435467 81.983536 -44.720295 9.521895 101.819031
13 101.539970 5.215704 5.435467 82.244064 -42.772606 9.150358 101.819031
[Rope4_Seg01]
12 0.000010 0.000029 -0.000116 -108.157036 -15.444860 -51.899109 0.000120
13 0.000010 0.000028 -0.000113 -101.234909 -10.421907 -46.434338 0.000117
[Rope4_Seg02]
12 139.999985 0.000060 0.000119 -51.652344 -1.289586 -37.550320 139.999985
13 139.999985 0.000060 0.000119 -58.547817 -5.334042 -34.855339 139.999985
[Rope4_Seg03]
12 139.999924 0.000000 -0.000238 -46.187698 25.326717 -40.717991 139.999924
13 139.999924 0.000000 -0.000238 -47.703781 24.344326 -35.449085 139.999924
[Rope4_Seg04]
12 139.999985 0.000000 0.000119 3.138158 29.591877 12.914168 139.999985
13 139.999985 0.000000 0.000119 1.501056 32.056168 10.263838 139.999985
[Rope4_Seg05]
12 139.999802 -0.000060 -0.000119 1.580411 23.109377 18.295164 139.999802
13 139.999802 -0.000060 -0.000119 4.905946 31.999750 19.919090 139.999802
[Rope4_Seg06]
12 139.999924 0.000000 0.000060 -0.644214 7.370022 4.833403 139.999924
13 139.999924 0.000000 0.000060 0.131014 9.789822 4.988168 139.999924
[Rope4_Seg07]
12 139.999802 0.000000 0.000000 -0.426515 3.820544 2.447015 139.999802
13 139.999802 0.000000 0.000000 0.119487 4.472248 2.129770 139.999802
[Rope4_Seg08]
12 139.999924 0.000000 0.000119 -1.853000 2.106531 1.372620 139.999924
13 139.999924 0.000000 0.000119 -1.493318 2.395854 1.137991 139.999924
[Rope4_Seg09]
12 90.185791 0.000060 0.000060 -135.617828 2.228885 0.850567 90.185791
13 90.185791 0.000060 0.000060 -135.617828 2.228885 0.850567 90.185791
[L_rear_hand01]
12 101.696655 -8.392275 -7.654577 -29.807377 -26.000988 139.554398 102.329041
13 101.696655 -8.392275 -7.654577 -28.796082 -27.129267 137.298477 102.329041
[L_rear_hand02]
12 102.726799 -1.568258 5.773216 82.157768 43.437939 170.726135 102.900848
13 102.726799 -1.568258 5.773216 81.840157 45.725384 170.277420 102.900848
[L_rear_hand03]
12 104.552910 9.721220 -10.420293 -165.604721 -20.244781 -137.169205 105.519653
13 104.552910 9.721220 -10.420293 -166.442245 -20.805418 -134.771164 105.519653
